<svg width="25" height="25" viewBox="0 0 25 25" fill="none" xmlns="http://www.w3.org/2000/svg">
<g clip-path="url(#clip0_427_154)">
<path fill-rule="evenodd" clip-rule="evenodd" d="M24.7141 0.176286C24.8035 0.249623 24.8756 0.341909 24.925 0.446481C24.9745 0.551053 25.0001 0.6653 25 0.780974V22.656C24.9999 22.8365 24.9373 23.0114 24.8227 23.151C24.7082 23.2906 24.5489 23.3862 24.3719 23.4216L16.5594 24.9841C16.4583 25.0043 16.3542 25.0043 16.2531 24.9841L8.59375 23.4529L0.934375 24.9841C0.821076 25.0067 0.704165 25.004 0.592063 24.976C0.479962 24.948 0.375462 24.8955 0.286093 24.8223C0.196723 24.7491 0.124708 24.6569 0.0752371 24.5525C0.0257659 24.4481 6.97699e-05 24.334 0 24.2185L0 2.34347C0.000109034 2.16293 0.0627439 1.988 0.177255 1.84842C0.291767 1.70884 0.451086 1.61323 0.628125 1.57785L8.44063 0.0153486C8.54171 -0.00485567 8.64579 -0.00485567 8.74687 0.0153486L16.4062 1.5466L24.0656 0.0153486C24.1789 -0.00743918 24.2958 -0.00482432 24.4079 0.0230048C24.52 0.050834 24.6246 0.103185 24.7141 0.176286ZM15.625 2.9841L9.375 1.7341V22.0154L15.625 23.2654V2.9841ZM17.1875 23.2654L23.4375 22.0154V1.7341L17.1875 2.9841V23.2654ZM7.8125 22.0154V1.7341L1.5625 2.9841V23.2654L7.8125 22.0154Z" fill="white"/>
</g>
<defs>
<clipPath id="clip0_427_154">
<rect width="25" height="25" fill="white"/>
</clipPath>
</defs>
</svg>
