<svg width="25" height="25" viewBox="0 0 25 25" fill="none" xmlns="http://www.w3.org/2000/svg">
<g clip-path="url(#clip0_427_156)">
<path d="M5.70913 2.07497C5.61689 1.95632 5.50046 1.85865 5.36758 1.78845C5.23469 1.71825 5.08838 1.67713 4.93838 1.66782C4.78838 1.65851 4.63811 1.68122 4.49757 1.73445C4.35702 1.78768 4.2294 1.8702 4.1232 1.97653L2.50757 3.59372C1.75288 4.34997 1.47476 5.42029 1.80445 6.35935C3.17434 10.2455 5.4 13.774 8.31695 16.6843C11.2272 19.6013 14.7558 21.827 18.6419 23.1968C19.581 23.5265 20.6513 23.2484 21.4076 22.4937L23.0232 20.8781C23.1295 20.7719 23.2121 20.6443 23.2653 20.5037C23.3185 20.3632 23.3412 20.2129 23.3319 20.0629C23.3226 19.9129 23.2815 19.7666 23.2113 19.6337C23.1411 19.5008 23.0434 19.3844 22.9248 19.2922L19.3201 16.489C19.1932 16.3909 19.0458 16.3228 18.8888 16.2898C18.7319 16.2568 18.5695 16.2597 18.4138 16.2984L14.9919 17.1531C14.5352 17.2665 14.0568 17.26 13.6033 17.1344C13.1497 17.0088 12.7362 16.7682 12.4029 16.4359L8.56538 12.5968C8.23285 12.2637 7.99197 11.8503 7.86606 11.3967C7.74014 10.9431 7.73345 10.4647 7.84663 10.0078L8.70288 6.58591C8.74157 6.43026 8.74452 6.26787 8.7115 6.11092C8.67849 5.95397 8.61037 5.80653 8.51226 5.67966L5.70913 2.07497ZM2.94351 0.79841C3.21694 0.524894 3.54543 0.312676 3.90716 0.17585C4.2689 0.0390228 4.65561 -0.0192824 5.04161 0.00480552C5.4276 0.0288935 5.80406 0.134823 6.14598 0.315561C6.4879 0.496299 6.78746 0.747709 7.02476 1.0531L9.82788 4.65622C10.3419 5.31716 10.5232 6.1781 10.3201 6.9906L9.46538 10.4125C9.4215 10.5897 9.42404 10.7753 9.47276 10.9513C9.52148 11.1273 9.61473 11.2877 9.74351 11.4172L13.5826 15.2562C13.7122 15.3853 13.8729 15.4787 14.0492 15.5274C14.2255 15.5761 14.4113 15.5785 14.5888 15.5343L18.0091 14.6797C18.4101 14.58 18.8285 14.5725 19.2328 14.6577C19.6371 14.743 20.0169 14.9188 20.3435 15.1718L23.9466 17.975C25.2419 18.9828 25.3607 20.8968 24.2013 22.0547L22.5857 23.6703C21.4294 24.8265 19.7013 25.3343 18.0904 24.7672C13.9664 23.3181 10.2225 20.9574 7.13726 17.8609C4.04097 14.7761 1.68031 11.0327 0.231009 6.90935C-0.334616 5.29997 0.173197 3.57029 1.32945 2.41404L2.94351 0.79841Z" fill="white"/>
</g>
<defs>
<clipPath id="clip0_427_156">
<rect width="25" height="25" fill="white"/>
</clipPath>
</defs>
</svg>
